# Made in Blockbench 4.7.2
mtllib Kayas.mtl

o L-Wing
v 0.14648602297738156 0.6284872297512826 0.05156250000000004
v 0.14648602297738156 0.6284872297512826 -0.05156250000000004
v 0.48672496151044065 0.1277610867181247 0.1296875
v 0.48672496151044065 0.1277610867181247 -0.1296875
v 0.541268003655463 0.16961343496247416 0.1296875
v 0.541268003655463 0.16961343496247416 -0.1296875
v 0.34322562113445715 0.40717379736546544 0.10234375000000001
v 0.34322562113445715 0.40717379736546544 -0.10234375000000001
v 0.3085164124967157 0.38054048484633396 -0.10234375000000001
v 0.3085164124967157 0.38054048484633396 0.10234375000000001
v 0.34322562113445715 0.40717379736546544 -1.3877787807814457e-17
v 0.541268003655463 0.16961343496247416 -2.7755575615628914e-17
v 0.48672496151044065 0.1277610867181247 -2.7755575615628914e-17
v 0.3085164124967157 0.38054048484633396 -1.3877787807814457e-17
v 0.15640293973102198 0.6360967476138916 -6.938893903907228e-18
vt 0.03125 0.890625
vt 0.03125 1
vt 0.0625 1
vt 0.0625 0.890625
vt 0 0.96875
vt 0.0625 0.96875
vt 0.0625 0.9375
vt 0 0.9375
vt 0.031249999999999997 0.890625
vt 0.031249999999999997 0.78125
vt 0 0.78125
vt 0 0.890625
vt 0 0.890625
vt 0.0625 0.890625
vt 0.0625 0.78125
vt 0 0.78125
vt 0.03125 0.78125
vt 0.03125 0.890625
vt 0.0625 0.890625
vt 0.0625 0.78125
vt 0 0.890625
vt 0.0625 0.890625
vt 0.0625 0.78125
vt 0 0.78125
vt 0.05117187499999999 1
vt 0.05117187499999999 0.851940625
vt 0 0.851940625
vt 0.025390625 1
vt 0 0.850159375
vt 0.011196875000000009 1
vt 0.021875000000000006 0.850159375
vt 0.010678124999999997 1
vt 0.021875000000000006 0.850159375
vt 0 0.850159375
vt 0.031249999999999997 0.78125
vt 0.031249999999999997 0.890625
vt 0.0625 0.890625
vt 0.0625 0.78125
vt 0.0625 0.96875
vt 0 0.96875
vt 0 1
vt 0.0625 1
vt 0.03125 0.890625
vt 0.03125 0.78125
vt 0 0.78125
vt 0 0.890625
vt 0.03125 1
vt 0.03125 0.890625
vt 0 0.890625
vt 0 1
vt 0.05117187499999999 0.851940625
vt 0.05117187499999999 1
vt 0.076953125 1
vt 0.10234375 0.851940625
vn -0.8354279234999447 -0.49726757353857115 0.2340622672359489
vn 0.6087614290087207 -0.7933533402912352 0
vn 0.768101347370075 0.6403282909322965 0
vn -0.05365513377741113 0.0699247317219114 -0.9961082564224367
vn -0.8173088907833278 -0.5761997718209602 0
vn -0.05365513377741113 0.0699247317219114 0.9961082564224367
vn 0.774749387060507 0.6322684455588216 0
vn -0.10315523147677334 0.13443451500183884 -0.9855386138529498
vn -0.10315523147677334 0.13443451500183884 0.9855386138529498
vn 0.768101347370075 0.6403282909322965 0
vn 0.6087614290087207 -0.7933533402912352 0
vn -0.8173088907833278 -0.5761997718209602 0
vn -0.8592978356252297 -0.5114755416340022 0
vn 0.7529590499216002 0.6144854788070928 0.23550003285855223
usemtl none
f 14/1/1 15/2/1 2/3/1 9/4/1
f 12/5/2 13/6/2 4/7/2 6/8/2
f 11/9/3 12/10/3 6/11/3 8/12/3
f 9/13/4 8/14/4 6/15/4 4/16/4
f 13/17/5 14/18/5 9/19/5 4/20/5
f 7/21/6 10/22/6 3/23/6 5/24/6
f 15/25/7 11/26/7 8/27/7 2/28/7
f 9/29/8 2/30/8 8/31/8
f 1/32/9 10/33/9 7/34/9
f 12/35/10 11/36/10 7/37/10 5/38/10
f 13/39/11 12/40/11 5/41/11 3/42/11
f 14/43/12 13/44/12 3/45/12 10/46/12
f 15/47/13 14/48/13 10/49/13 1/50/13
f 11/51/14 15/52/14 1/53/14 7/54/14
o R-Wing
v -0.14648602297738156 0.6284872297512826 0.05156250000000004
v -0.14648602297738156 0.6284872297512826 -0.05156250000000004
v -0.48672496151044065 0.1277610867181247 0.1296875
v -0.48672496151044065 0.1277610867181247 -0.1296875
v -0.541268003655463 0.16961343496247416 0.1296875
v -0.541268003655463 0.16961343496247416 -0.1296875
v -0.34322562113445715 0.40717379736546544 0.10234375000000001
v -0.34322562113445715 0.40717379736546544 -0.10234375000000001
v -0.3085164124967157 0.38054048484633396 -0.10234375000000001
v -0.3085164124967157 0.38054048484633396 0.10234375000000001
v -0.34322562113445715 0.40717379736546544 -1.3877787807814457e-17
v -0.541268003655463 0.16961343496247416 -2.7755575615628914e-17
v -0.48672496151044065 0.1277610867181247 -2.7755575615628914e-17
v -0.3085164124967157 0.38054048484633396 -1.3877787807814457e-17
v -0.15640293973102198 0.6360967476138916 -6.938893903907228e-18
vt 0.0625 1
vt 0.03125 1
vt 0.03125 0.890625
vt 0.0625 0.890625
vt 0.0625 0.9375
vt 0.0625 0.96875
vt 0 0.96875
vt 0 0.9375
vt 0 0.78125
vt 0.031249999999999997 0.78125
vt 0.031249999999999997 0.890625
vt 0 0.890625
vt 0.0625 0.78125
vt 0.0625 0.890625
vt 0 0.890625
vt 0 0.78125
vt 0.0625 0.890625
vt 0.03125 0.890625
vt 0.03125 0.78125
vt 0.0625 0.78125
vt 0.0625 0.78125
vt 0.0625 0.890625
vt 0 0.890625
vt 0 0.78125
vt 0 0.851940625
vt 0.05117187499999999 0.851940625
vt 0.05117187499999999 1
vt 0.025390625 1
vt 0.011196875000000009 1
vt 0 0.850159375
vt 0.021875000000000006 0.850159375
vt 0.021875000000000006 0.850159375
vt 0.010678124999999997 1
vt 0 0.850159375
vt 0.0625 0.890625
vt 0.031249999999999997 0.890625
vt 0.031249999999999997 0.78125
vt 0.0625 0.78125
vt 0 1
vt 0 0.96875
vt 0.0625 0.96875
vt 0.0625 1
vt 0 0.78125
vt 0.03125 0.78125
vt 0.03125 0.890625
vt 0 0.890625
vt 0 0.890625
vt 0.03125 0.890625
vt 0.03125 1
vt 0 1
vt 0.076953125 1
vt 0.05117187499999999 1
vt 0.05117187499999999 0.851940625
vt 0.10234375 0.851940625
vn 0.8354279234999447 -0.4972675735385712 0.23406226723594892
vn -0.6087614290087207 -0.7933533402912352 0
vn -0.768101347370075 0.6403282909322965 0
vn 0.05365513377741113 0.0699247317219114 -0.9961082564224367
vn 0.8173088907833278 -0.5761997718209602 0
vn 0.05365513377741113 0.0699247317219114 0.9961082564224367
vn -0.774749387060507 0.6322684455588216 0
vn 0.10315523147677334 0.13443451500183884 -0.9855386138529498
vn 0.10315523147677334 0.13443451500183884 0.9855386138529498
vn -0.768101347370075 0.6403282909322965 0
vn -0.6087614290087207 -0.7933533402912352 0
vn 0.8173088907833278 -0.5761997718209602 0
vn 0.8592978356252297 -0.5114755416340022 0
vn -0.7529590499216003 0.6144854788070928 0.23550003285855228
usemtl none
f 17/55/15 30/56/15 29/57/15 24/58/15
f 19/59/16 28/60/16 27/61/16 21/62/16
f 21/63/17 27/64/17 26/65/17 23/66/17
f 21/67/18 23/68/18 24/69/18 19/70/18
f 24/71/19 29/72/19 28/73/19 19/74/19
f 18/75/20 25/76/20 22/77/20 20/78/20
f 23/79/21 26/80/21 30/81/21 17/82/21
f 17/83/22 24/84/22 23/85/22
f 25/86/23 16/87/23 22/88/23
f 22/89/24 26/90/24 27/91/24 20/92/24
f 20/93/25 27/94/25 28/95/25 18/96/25
f 18/97/26 28/98/26 29/99/26 25/100/26
f 25/101/27 29/102/27 30/103/27 16/104/27
f 16/105/28 30/106/28 26/107/28 22/108/28
o Face
v 0.2544736216730038 1.1968749999999995 0.23903985507246378
v 0.2544736216730038 1.1968749999999995 -0.23903985507246378
v 0.28828069302519016 0.6828124999999998 0.21093750000000006
v 0.28828069302519016 0.6828124999999998 -0.21093750000000006
v -0.2544736216730038 1.1968749999999995 0.23903985507246378
v -0.2544736216730038 1.1968749999999995 -0.23903985507246378
v -0.28828069302519016 0.6828124999999998 0.21093750000000006
v -0.28828069302519016 0.6828124999999998 -0.21093750000000006
v -0.3296875 0.8390624999999997 -0.27187500000000003
v 0.3296875 0.8390624999999997 -0.27187500000000003
v 0.3296875 0.8390624999999997 0.27187500000000003
v -0.3296875 0.8390624999999997 0.27187500000000003
v 0 0.8406249999999997 -0.38906250000000003
v 0 0.6203124999999998 -0.21093750000000006
v 0 0.6203124999999998 0.21093750000000006
v 0 0.8406249999999997 0.38906250000000003
v 0 1.2734374999999998 0.28437500000000004
v 0 1.2734374999999998 -0.28437500000000004
v 0 1.3468749999999998 -5.551115123125783e-17
v -0.2785943441064639 1.2703124999999997 -5.551115123125783e-17
v -0.3609375000000001 0.8390624999999997 -5.551115123125783e-17
v -0.3060420627376426 0.6828124999999998 -5.551115123125783e-17
v 0 0.6203124999999998 -5.551115123125783e-17
v 0.3060420627376426 0.6828124999999998 -5.551115123125783e-17
v 0.3609375000000001 0.8390624999999997 -5.551115123125783e-17
v 0.2785943441064639 1.2703124999999997 -5.551115123125783e-17
vt 0.068 0.929
vt 0.031 0.937
vt 0.031 0.89403125
vt 0.06300000000000001 0.894
vt 0.125 0.89403125
vt 0.15625 0.89403125
vt 0.15625 0.937
vt 0.121 0.931
vt 0.094 0.937
vt 0.094 0.968
vt 0.063 0.968
vt 0.068 0.929
vt 0.125 0.9375
vt 0.125 0.96875
vt 0.15625 0.96875
vt 0.15625 0.9375
vt 0.244 0.9319999999999999
vt 0.219 0.937
vt 0.219 0.895
vt 0.25 0.895
vt 0.063 0.894
vt 0.094 0.894
vt 0.094 0.937
vt 0.06800000000000003 0.9289999999999999
vt 0.063 0.875
vt 0.094 0.875
vt 0.094 0.894
vt 0.063 0.894
vt 0.063 0.894
vt 0.030999999999999986 0.894
vt 0.031 0.875
vt 0.063 0.875
vt 0.25 0.89453125
vt 0.21875 0.89453125
vt 0.21875 0.875
vt 0.25 0.875
vt 0.125 0.875
vt 0.15625 0.875
vt 0.15625 0.89453125
vt 0.125 0.89453125
vt 0.125 0.894
vt 0.094 0.894
vt 0.094 0.875
vt 0.125 0.875
vt 0.15625 0.9375
vt 0.15625 0.96875
vt 0.1875 0.96875
vt 0.1875 0.9375
vt 0.1875 0.875
vt 0.21875 0.875
vt 0.21875 0.89453125
vt 0.1875 0.89453125
vt 0.18799999999999997 0.895
vt 0.21899999999999997 0.895
vt 0.21899999999999997 0.937
vt 0.19299999999999998 0.9299999999999999
vt 0.121 0.931
vt 0.125 0.968
vt 0.094 0.968
vt 0.094 0.937
vt 0.121 0.931
vt 0.09375 0.937
vt 0.09375 0.89403125
vt 0.125 0.89403125
vt 0.09400000000000001 1
vt 0.09400000000000001 0.968
vt 0.125 0.968
vt 0.125 1
vt 0.1875 0.937
vt 0.15625 0.937
vt 0.15625 0.89403125
vt 0.1875 0.89403125
vt 0.1875 0.89453125
vt 0.15625 0.89453125
vt 0.15625 0.875
vt 0.1875 0.875
vt 0.1875 1
vt 0.1875 0.96875
vt 0.15625 0.96875
vt 0.15625 1
vt 0.15625 1
vt 0.15625 0.96875
vt 0.125 0.96875
vt 0.125 1
vt 0 0.875
vt 0.031 0.875
vt 0.030999999999999996 0.894
vt 0 0.894
vt 0 0.8940312499999999
vt 0.030999999999999986 0.894
vt 0.03125000000000001 0.937
vt 0 0.937
vt 0.063 1
vt 0.06300000000000001 0.968
vt 0.094 0.968
vt 0.09400000000000001 1
vn 0.9704073858773925 0.18529021833168946 -0.1548452144084549
vn -0.9760534103188667 0.1863682739160675 -0.11219004716308835
vn 0.2571403383797723 0.9356779613286746 -0.241631121881581
vn 0.20006204289307555 -0.9796384045200572 -0.0168456339401597
vn 0.23694688476306533 0.22840287580435684 0.9442924865344308
vn 0.3274884853323356 0.22213341892060393 -0.9183724931493626
vn 0.1350596567124824 -0.6229614629890992 -0.7705049673812544
vn 0.9379669914356304 -0.329536692048108 -0.10781229786616463
vn 0.26374741534889773 -0.6064602168819796 0.7500955314066591
vn -0.9405031150944646 -0.3304277103982078 -0.07919228938859145
vn -0.26374741534889773 -0.6064602168819796 -0.7500955314066591
vn -0.20009043527742074 -0.9797774327419939 0
vn -0.1350596567124824 -0.6229614629890992 0.7705049673812544
vn -0.3274884853323356 0.22213341892060393 0.9183724931493626
vn -0.2521666050230282 0.9175796236009026 -0.30734286662225657
vn -0.23694688476306533 0.22840287580435684 -0.9442924865344308
vn -0.2571403383797723 0.9356779613286746 0.24163112188158092
vn -0.9704073858773925 0.18529021833168946 0.15484521440845483
vn -0.9379669914356306 -0.3295366920481079 0.10781229786616459
vn -0.20006204289307555 -0.9796384045200572 0.01684563394015969
vn 0.20009043527742074 -0.9797774327419939 0
vn 0.9405031150944646 -0.33042771039820784 0.07919228938859141
vn 0.9760534103188667 0.18636827391606747 0.1121900471630883
vn 0.25216660502302823 0.9175796236009027 0.3073428666222564
usemtl m_65da2380-7c3b-23b7-108f-4ed8c04aeff6
f 32/109/29 56/110/29 55/111/29 40/112/29
f 39/113/30 51/114/30 50/115/30 36/116/30
f 48/117/31 49/118/31 56/119/31 32/120/31
f 34/121/32 54/122/32 53/123/32 44/124/32
f 31/125/33 47/126/33 46/127/33 41/128/33
f 40/129/34 43/130/34 48/131/34 32/132/34
f 34/133/35 44/134/35 43/135/35 40/136/35
f 40/137/36 55/138/36 54/139/36 34/140/36
f 41/141/37 46/142/37 45/143/37 33/144/37
f 38/145/38 52/146/38 51/147/38 39/148/38
f 39/149/39 43/150/39 44/151/39 38/152/39
f 44/153/40 53/154/40 52/155/40 38/156/40
f 37/157/41 45/158/41 46/159/41 42/160/41
f 42/161/42 46/162/42 47/163/42 35/164/42
f 36/165/43 50/166/43 49/167/43 48/168/43
f 36/169/44 48/170/44 43/171/44 39/172/44
f 47/173/45 49/174/45 50/175/45 35/176/45
f 35/177/46 50/178/46 51/179/46 42/180/46
f 42/181/47 51/182/47 52/183/47 37/184/47
f 37/185/48 52/186/48 53/187/48 45/188/48
f 45/189/49 53/190/49 54/191/49 33/192/49
f 33/193/50 54/194/50 55/195/50 41/196/50
f 41/197/51 55/198/51 56/199/51 31/200/51
f 31/201/52 56/202/52 49/203/52 47/204/52
o Upper-Beak-Jaw
v 0.18125000000000002 0.8718749999999998 -0.3359375
v 0.14664772727272726 0.8718749999999998 -0.43113281250000024
v -0.18125000000000002 0.8718749999999998 -0.3359375
v -0.14664772727272726 0.8718749999999998 -0.43113281250000024
v 3.5773853015699485e-17 0.9734374999999998 -0.47621093750000015
v 3.5773853015699485e-17 0.9999999999999998 -0.3359375
v 0 0.8718749999999998 -0.6921875
v 0 0.8718749999999998 -0.3359375
v -3.5773853015699485e-17 0.8718749999999998 -0.6921875
vt 0.004 0.987125
vt 0.0234375 0.983125
vt 0.0234375 1
vt 0 1
vt 0.046875 1
vt 0.0234375 1
vt 0.0234375 0.983125
vt 0.044875 0.987125
vt 0.04687499999999997 0.982
vt 0.023437499999999997 0.982
vt 0.023437499999999997 0.965125
vt 0.04687499999999997 0.965125
vt 0.0234375 0.94921875
vt 0.0234375 0.92578125
vt 0.046875 0.92578125
vt 0.0703125 0.94921875
vt 0.0703125 0.92578125
vt 0.09375 0.92578125
vt 0 0.965125
vt 0.023437499999999997 0.965125
vt 0.023437499999999997 0.982
vt 0 0.982
vt 0.046875 0.92578125
vt 0.0703125 0.92578125
vt 0.0703125 0.94921875
vt 0 0.92578125
vt 0.0234375 0.92578125
vt 0.0234375 0.94921875
vn 0.5936256158801911 0.7906898874607592 -0.1497268514267099
vn -0.5704562633154758 0.8069869090804296 -0.15281289283617136
vn 0 -1 0
vn -0.6038359277019528 0.7213333844287625 -0.33920542584821545
vn 0 0 1
vn 0 -1 0
vn 0 0 1
vn 0.603835927701953 0.7213333844287623 -0.3392054258482158
usemtl m_a0bfa18c-6562-6da7-b9af-545f7701b751
f 58/205/53 61/206/53 62/207/53 57/208/53
f 59/209/54 62/210/54 61/211/54 60/212/54
f 57/213/55 64/214/55 63/215/55 58/216/55
f 61/217/56 65/218/56 60/219/56
f 62/220/57 64/221/57 57/222/57
f 60/223/58 63/224/58 64/225/58 59/226/58
f 59/227/59 64/228/59 62/229/59
f 58/230/60 65/231/60 61/232/60
o Lower-Beak-Jaw
v -0.15781250000000002 0.8718749999999997 -0.2718750000000001
v -0.15781250000000002 0.8718749999999997 -0.3875000000000002
v 0.15781250000000002 0.8718749999999997 -0.2718750000000001
v 0.15781250000000002 0.8718749999999997 -0.3875000000000002
v -5.099550734298168e-17 0.7953124999999998 -0.37812500000000004
v -5.099550734298168e-17 0.7953124999999998 -0.2718750000000001
v -2.922378565252559e-17 0.8718749999999997 -0.5796875
v -2.922378565252559e-17 0.8718749999999997 -0.2718750000000001
v 1.9241380939024083e-18 0.8718749999999997 -0.5796875
vt 0.046875 0.955125
vt 0.0234375 0.955125
vt 0.0234375 0.974
vt 0.046875 0.974
vt 0 0.955125
vt 0.023437500000000028 0.955125
vt 0.023437500000000028 0.974
vt 2.7755575615628914e-17 0.974
vt 0.0703125 0.974
vt 0.09375 0.974
vt 0.09375 0.955125
vt 0.0703125 0.955125
vt 0.023437500000000014 0.8984375
vt 0.0234375 0.921875
vt 0 0.921875
vt 0.0703125 0.8984375
vt 0.0703125 0.921875
vt 0.04765625 0.921875
vt 0.046875 0.974
vt 0.0703125 0.974
vt 0.0703125 0.955125
vt 0.046875 0.955125
vt 0.09375 0.921875
vt 0.0703125 0.921875
vt 0.0703125 0.8984375
vt 0.046875 0.921875
vt 0.0234375 0.921875
vt 0.0234375 0.8984375
vn -0.43649205427167925 -0.899708111866115 0
vn 0.43649205427167914 -0.899708111866115 0
vn -1.2246467991473532e-16 1 0
vn 0.39691521499038007 -0.8580402084137497 -0.3259222497075481
vn 0 0 1
vn -1.2246467991473532e-16 1 0
vn 0 0 1
vn -0.39691521499038007 -0.8580402084137497 -0.32592224970754824
usemtl m_a0bfa18c-6562-6da7-b9af-545f7701b751
f 67/233/61 70/234/61 71/235/61 66/236/61
f 68/237/62 71/238/62 70/239/62 69/240/62
f 66/241/63 73/242/63 72/243/63 67/244/63
f 70/245/64 74/246/64 69/247/64
f 71/248/65 73/249/65 66/250/65
f 69/251/66 72/252/66 73/253/66 68/254/66
f 68/255/67 73/256/67 71/257/67
f 67/258/68 74/259/68 70/260/68
o Body
v 0.072509765625 0.7671874999999998 0.07136718749999998
v 0.072509765625 0.7671874999999998 -0.07136718749999998
v 0.14370117187499998 0.1 0.15930175781249997
v 0.14370117187499998 0.1 -0.15930175781249997
v -0.072509765625 0.7671874999999998 0.07136718749999998
v -0.072509765625 0.7671874999999998 -0.07136718749999998
v -0.14370117187499998 0.1 0.15930175781249997
v -0.14370117187499998 0.1 -0.15930175781249997
v -0.21796875000000002 0.3404430264330851 -0.21483957362547296
v 0.21796875000000002 0.3404430264330851 -0.21483957362547296
v 0.21796875000000002 0.35211051670146143 0.2109375
v -0.21796875000000002 0.35211051670146143 0.2109375
v -0.21796875000000002 0.1758019454086388 -0.22718822530515798
v 0.21796875000000002 0.1758019454086388 -0.22718822530515798
v 0.21796875000000002 0.18706739893717966 0.2109375
v -0.21796875000000002 0.18706739893717966 0.2109375
v 0 0.345015797458581 -0.2849807959093668
v 0 0.7671874999999998 -0.09515624999999998
v 0 0.7671874999999998 0.09515624999999998
v 0 0.35211051670146143 0.28125
v 0 0.18706739893717966 0.28125
v 0 0.1 0.21240234374999997
v 0 0.1 -0.21240234374999997
v 0 0.18037471643413494 -0.2973294475890519
v 0 0.5353326384039976 -0.1945290218649619
v 0.158203125 0.5320967677963723 -0.14489436526267863
v 0.158203125 0.5482527519453405 0.14926757812499997
v 0 0.5482527519453405 0.19902343749999996
v -0.158203125 0.5482527519453405 0.14926757812499997
v -0.158203125 0.5320967677963723 -0.14489436526267863
v 0.21093749999999997 0.5482527519453405 0
v 0.0966796875 0.7671874999999998 0
v 0 0.7671874999999998 0
v -0.0966796875 0.7671874999999998 0
v -0.21093749999999997 0.5482527519453405 0
v -0.290625 0.35211051670146143 0
v -0.290625 0.18706739893717966 0
v -0.1916015625 0.1 0
v 0 0.1 0
v 0.1916015625 0.1 0
v 0.290625 0.18706739893717966 0
v 0.290625 0.35211051670146143 0
vt 0.0625 0.9358333333333334
vt 0.03125 0.9358333333333334
vt 0.03125 0.921875
vt 0.0625 0.921875
vt 0.125 0.921875
vt 0.15625 0.921875
vt 0.15625 0.9358333333333334
vt 0.125 0.9358333333333334
vt 0.12499999999999989 1
vt 0.12499999999999989 0.96875
vt 0.1562499999999999 0.96875
vt 0.1562499999999999 1
vt 0.09374999999999992 0.9375
vt 0.09374999999999992 0.96875
vt 0.06416666666666661 0.96875
vt 0.06416666666666661 0.9375
vt 0.18916666666666668 0.9358333333333334
vt 0.18916666666666668 0.921875
vt 0.21875 0.921875
vt 0.21875 0.9358333333333334
vt 0.09375 0.9358333333333334
vt 0.09375 0.921875
vt 0.125 0.921875
vt 0.125 0.9358333333333334
vt 0.125 0.90625
vt 0.09375 0.90625
vt 0.09375 0.890625
vt 0.125 0.890625
vt 0.0625 0.90625
vt 0.03125 0.90625
vt 0.03125 0.890625
vt 0.0625 0.890625
vt 0.18916666666666668 0.890625
vt 0.21875 0.890625
vt 0.21875 0.90625
vt 0.18916666666666668 0.90625
vt 0.125 0.890625
vt 0.15625 0.890625
vt 0.15625 0.90625
vt 0.125 0.90625
vt 0.125 0.890625
vt 0.09375 0.890625
vt 0.09375 0.875
vt 0.125 0.875
vt 0.0625 0.890625
vt 0.03125 0.890625
vt 0.03125 0.875
vt 0.0625 0.875
vt 0.18916666666666668 0.875
vt 0.21875 0.875
vt 0.21875 0.890625
vt 0.18916666666666668 0.890625
vt 0.125 0.875
vt 0.15625 0.875
vt 0.15625 0.890625
vt 0.125 0.890625
vt 0.06416666666666666 0.9358333333333334
vt 0.06416666666666666 0.921875
vt 0.09375 0.921875
vt 0.09375 0.9358333333333334
vt 0.1562499999999999 1
vt 0.1562499999999999 0.96875
vt 0.1874999999999999 0.96875
vt 0.1874999999999999 1
vt 0.21875 0.9358333333333334
vt 0.21875 0.921875
vt 0.25 0.921875
vt 0.25 0.9358333333333334
vt 0.25 0.90625
vt 0.21875 0.90625
vt 0.21875 0.890625
vt 0.25 0.890625
vt 0.25 0.890625
vt 0.21875 0.890625
vt 0.21875 0.875
vt 0.25 0.875
vt 0.12499999999999989 0.9375
vt 0.12499999999999989 0.96875
vt 0.09374999999999992 0.96875
vt 0.09374999999999992 0.9375
vt 0.06416666666666666 0.875
vt 0.09375 0.875
vt 0.09375 0.890625
vt 0.06416666666666666 0.890625
vt 0.06416666666666666 0.890625
vt 0.09375 0.890625
vt 0.09375 0.90625
vt 0.06416666666666666 0.90625
vt 0.09375 0.90625
vt 0.09375 0.921875
vt 0.06416666666666666 0.921875
vt 0.06416666666666666 0.90625
vt 0.0625 0.921875
vt 0.03125 0.921875
vt 0.03125 0.90625
vt 0.0625 0.90625
vt 0.25 0.90625
vt 0.25 0.921875
vt 0.21875 0.921875
vt 0.21875 0.90625
vt 0.21875 0.90625
vt 0.21875 0.921875
vt 0.18916666666666668 0.921875
vt 0.18916666666666668 0.90625
vt 0.125 0.90625
vt 0.15625 0.90625
vt 0.15625 0.921875
vt 0.125 0.921875
vt 0.125 0.90625
vt 0.125 0.921875
vt 0.09375 0.921875
vt 0.09375 0.90625
vt 0 0.921875
vt 0.03125 0.921875
vt 0.03125 0.9358333333333334
vt 0 0.9358333333333334
vt 0.1874999999999999 0.9375
vt 0.1874999999999999 0.96875
vt 0.1562499999999999 0.96875
vt 0.1562499999999999 0.9375
vt 0.1562499999999999 0.9375
vt 0.1562499999999999 0.96875
vt 0.12499999999999989 0.96875
vt 0.12499999999999989 0.9375
vt 0.1875 0.9358333333333334
vt 0.15625 0.9358333333333334
vt 0.15625 0.921875
vt 0.1875 0.921875
vt 0.1875 0.921875
vt 0.15625 0.921875
vt 0.15625 0.90625
vt 0.1875 0.90625
vt 0.1875 0.90625
vt 0.15625 0.90625
vt 0.15625 0.890625
vt 0.1875 0.890625
vt 0.1875 0.890625
vt 0.15625 0.890625
vt 0.15625 0.875
vt 0.1875 0.875
vt 0.06416666666666661 1
vt 0.06416666666666661 0.96875
vt 0.09374999999999992 0.96875
vt 0.09374999999999992 1
vt 0.09374999999999992 1
vt 0.09374999999999992 0.96875
vt 0.12499999999999989 0.96875
vt 0.12499999999999989 1
vt 0 0.875
vt 0.03125 0.875
vt 0.03125 0.890625
vt 0 0.890625
vt 0 0.890625
vt 0.03125 0.890625
vt 0.03125 0.90625
vt 0 0.90625
vt 0 0.90625
vt 0.03125 0.90625
vt 0.03125 0.921875
vt 0 0.921875
vn 0.8490883502811342 0.44312279519071757 -0.2875607097626995
vn -0.8302937476790234 0.4333142554353569 -0.3505011392301379
vn 0 1 0
vn 0 -1 0
vn -0.2728884394110585 0.41554287270741075 0.8676727612284886
vn -0.28420383617475886 0.3776961543207932 -0.8812342449739652
vn -0.30690103268583463 0.07118396339540622 -0.9490756553045125
vn 0.9472945166897845 0 -0.32036400960386907
vn -0.3070027799227583 0 0.9517086177605509
vn -0.9524776573902299 0 -0.3046084571583989
vn -0.20172191457998073 -0.711374246473448 -0.6732421188788779
vn 0.650547655747048 -0.7398804364894244 -0.1713612771376292
vn -0.27839333883310985 -0.595735425097971 0.7533899735042227
vn -0.6476719839444467 -0.7366098793062376 -0.1947482655170889
vn 0.28406847830486887 0.37900037354147736 -0.880717784814737
vn 0 1 0
vn 0.2733297823973348 0.41230771195965166 0.8690760500170411
vn 0.3070027799227583 0 0.9517086177605509
vn 0.24530119269137435 -0.6013051777667042 0.7604336973432606
vn 0 -1 0
vn 0.2461814040200353 -0.7039520874847508 -0.6662178133618059
vn 0.30690103268583485 0.07118396339540621 -0.9490756553045124
vn 0.2804228355155316 0.4120321461811702 -0.8669443718225339
vn 0.8662815998611952 0.35194773274152996 -0.35452642096185827
vn 0.27938549565634857 0.36443418171758674 0.8883307222046807
vn -0.2785686299229198 0.37131632975005624 0.8857334258589403
vn -0.8788037340205785 0.35703515088268206 -0.3165910581581052
vn -0.28121448722136677 0.4051750969564923 -0.8699146814390023
vn 0.846009302759979 0.44151589981446177 0.2988845426826225
vn 0 1 0
vn 0 1 0
vn -0.8490883502811342 0.44312279519071757 0.2875607097626995
vn -0.8804950392877681 0.3577222843208811 0.31106792359528596
vn -0.9454845668267112 0 0.32566690635142276
vn -0.6438711852346853 -0.732287157391027 0.22177785269194722
vn 0 -1 0
vn 0 -1 0
vn 0.6476719839444467 -0.7366098793062376 0.1947482655170889
vn 0.9454845668267112 0 0.32566690635142276
vn 0.8826085529061691 0.3585809500552495 0.3040096126676805
usemtl m_2796e730-01d1-71bf-ec18-32e2dc01a04c
f 76/261/69 106/262/69 105/263/69 100/264/69
f 104/265/70 109/266/70 108/267/70 80/268/70
f 80/269/71 108/270/71 107/271/71 92/272/71
f 97/273/72 113/274/72 112/275/72 82/276/72
f 79/277/73 103/278/73 102/279/73 93/280/73
f 92/281/74 99/282/74 104/283/74 80/284/74
f 83/285/75 91/286/75 98/287/75 87/288/75
f 84/289/76 116/290/76 115/291/76 88/292/76
f 90/293/77 95/294/77 94/295/77 86/296/77
f 87/297/78 111/298/78 110/299/78 83/300/78
f 87/301/79 98/302/79 97/303/79 82/304/79
f 88/305/80 115/306/80 114/307/80 78/308/80
f 81/309/81 96/310/81 95/311/81 90/312/81
f 82/313/82 112/314/82 111/315/82 87/316/82
f 76/317/83 100/318/83 99/319/83 92/320/83
f 92/321/84 107/322/84 106/323/84 76/324/84
f 93/325/85 102/326/85 101/327/85 75/328/85
f 85/329/86 94/330/86 95/331/86 89/332/86
f 89/333/87 95/334/87 96/335/87 77/336/87
f 78/337/88 114/338/88 113/339/88 97/340/88
f 78/341/89 97/342/89 98/343/89 88/344/89
f 88/345/90 98/346/90 91/347/90 84/348/90
f 91/349/91 99/350/91 100/351/91 84/352/91
f 100/353/92 105/354/92 116/355/92 84/356/92
f 85/357/93 101/358/93 102/359/93 94/360/93
f 94/361/94 102/362/94 103/363/94 86/364/94
f 83/365/95 110/366/95 109/367/95 104/368/95
f 83/369/96 104/370/96 99/371/96 91/372/96
f 101/373/97 105/374/97 106/375/97 75/376/97
f 75/377/98 106/378/98 107/379/98 93/380/98
f 93/381/99 107/382/99 108/383/99 79/384/99
f 79/385/100 108/386/100 109/387/100 103/388/100
f 103/389/101 109/390/101 110/391/101 86/392/101
f 86/393/102 110/394/102 111/395/102 90/396/102
f 90/397/103 111/398/103 112/399/103 81/400/103
f 81/401/104 112/402/104 113/403/104 96/404/104
f 96/405/105 113/406/105 114/407/105 77/408/105
f 77/409/106 114/410/106 115/411/106 89/412/106
f 89/413/107 115/414/107 116/415/107 85/416/107
f 85/417/108 116/418/108 105/419/108 101/420/108